<mxfile host="app.diagrams.net" modified="2023-03-13T20:02:46.330Z" agent="5.0 (Windows NT 10.0; Win64; x64) AppleWebKit/537.36 (KHTML, like Gecko) Chrome/110.0.0.0 Safari/537.36" etag="EJ-yh0t7ct-GYJ3P4ENX" version="20.8.23" type="github">
  <diagram id="C5RBs43oDa-KdzZeNtuy" name="Page-1">
    <mxGraphModel dx="1793" dy="955" grid="1" gridSize="10" guides="1" tooltips="1" connect="1" arrows="1" fold="1" page="1" pageScale="1" pageWidth="2336" pageHeight="1654" math="0" shadow="0">
      <root>
        <mxCell id="WIyWlLk6GJQsqaUBKTNV-0" />
        <mxCell id="WIyWlLk6GJQsqaUBKTNV-1" parent="WIyWlLk6GJQsqaUBKTNV-0" />
        <mxCell id="zkfFHV4jXpPFQw0GAbJ--6" value="QRCode" style="swimlane;fontStyle=0;align=center;verticalAlign=top;childLayout=stackLayout;horizontal=1;startSize=26;horizontalStack=0;resizeParent=1;resizeLast=0;collapsible=1;marginBottom=0;rounded=0;shadow=0;strokeWidth=1;" parent="WIyWlLk6GJQsqaUBKTNV-1" vertex="1">
          <mxGeometry x="235" y="400" width="200" height="180" as="geometry">
            <mxRectangle x="130" y="380" width="160" height="26" as="alternateBounds" />
          </mxGeometry>
        </mxCell>
        <mxCell id="zkfFHV4jXpPFQw0GAbJ--7" value="-qid: String&#xa;-name: String&#xa;-photo: File&#xa;-comments: ArrayList&lt;Comment&gt;&#xa;-score: integer&#xa;-longitude: double&#xa;-latitude: double" style="text;align=left;verticalAlign=top;spacingLeft=4;spacingRight=4;overflow=hidden;rotatable=0;points=[[0,0.5],[1,0.5]];portConstraint=eastwest;" parent="zkfFHV4jXpPFQw0GAbJ--6" vertex="1">
          <mxGeometry y="26" width="200" height="114" as="geometry" />
        </mxCell>
        <mxCell id="zkfFHV4jXpPFQw0GAbJ--9" value="" style="line;html=1;strokeWidth=1;align=left;verticalAlign=middle;spacingTop=-1;spacingLeft=3;spacingRight=3;rotatable=0;labelPosition=right;points=[];portConstraint=eastwest;" parent="zkfFHV4jXpPFQw0GAbJ--6" vertex="1">
          <mxGeometry y="140" width="200" height="8" as="geometry" />
        </mxCell>
        <mxCell id="wJ786lOBI6JB7BBE6zlU-8" value="+getVisual(): String" style="text;align=left;verticalAlign=top;spacingLeft=4;spacingRight=4;overflow=hidden;rotatable=0;points=[[0,0.5],[1,0.5]];portConstraint=eastwest;" parent="zkfFHV4jXpPFQw0GAbJ--6" vertex="1">
          <mxGeometry y="148" width="200" height="30" as="geometry" />
        </mxCell>
        <mxCell id="zkfFHV4jXpPFQw0GAbJ--26" value="" style="endArrow=none;shadow=0;strokeWidth=1;rounded=0;endFill=0;edgeStyle=elbowEdgeStyle;elbow=vertical;entryX=0;entryY=0.5;entryDx=0;entryDy=0;" parent="WIyWlLk6GJQsqaUBKTNV-1" source="zkfFHV4jXpPFQw0GAbJ--0" target="2BQzIX3aD6I6nqEZA5Km-3" edge="1">
          <mxGeometry x="0.5" y="41" relative="1" as="geometry">
            <mxPoint x="380" y="192" as="sourcePoint" />
            <mxPoint x="750" y="155" as="targetPoint" />
            <mxPoint x="-40" y="32" as="offset" />
          </mxGeometry>
        </mxCell>
        <mxCell id="zkfFHV4jXpPFQw0GAbJ--27" value="1" style="resizable=0;align=left;verticalAlign=bottom;labelBackgroundColor=none;fontSize=12;" parent="zkfFHV4jXpPFQw0GAbJ--26" connectable="0" vertex="1">
          <mxGeometry x="-1" relative="1" as="geometry">
            <mxPoint y="-5" as="offset" />
          </mxGeometry>
        </mxCell>
        <mxCell id="zkfFHV4jXpPFQw0GAbJ--28" value="0..*" style="resizable=0;align=right;verticalAlign=bottom;labelBackgroundColor=none;fontSize=12;" parent="zkfFHV4jXpPFQw0GAbJ--26" connectable="0" vertex="1">
          <mxGeometry x="1" relative="1" as="geometry">
            <mxPoint y="-5" as="offset" />
          </mxGeometry>
        </mxCell>
        <mxCell id="2BQzIX3aD6I6nqEZA5Km-4" value="" style="group" parent="WIyWlLk6GJQsqaUBKTNV-1" vertex="1" connectable="0">
          <mxGeometry x="720" y="110" width="400" height="250" as="geometry" />
        </mxCell>
        <mxCell id="zkfFHV4jXpPFQw0GAbJ--17" value="Comment" style="swimlane;fontStyle=0;align=center;verticalAlign=top;childLayout=stackLayout;horizontal=1;startSize=26;horizontalStack=0;resizeParent=1;resizeLast=0;collapsible=1;marginBottom=0;rounded=0;shadow=0;strokeWidth=1;" parent="2BQzIX3aD6I6nqEZA5Km-4" vertex="1">
          <mxGeometry x="73.81" width="296.19" height="220" as="geometry">
            <mxRectangle x="550" y="140" width="160" height="26" as="alternateBounds" />
          </mxGeometry>
        </mxCell>
        <mxCell id="zkfFHV4jXpPFQw0GAbJ--18" value="-cid: String&#xa;-poster: Player&#xa;-text: String&#xa;+CREATOR:Â Creator&lt;Comment&gt; (static, final)" style="text;align=left;verticalAlign=top;spacingLeft=4;spacingRight=4;overflow=hidden;rotatable=0;points=[[0,0.5],[1,0.5]];portConstraint=eastwest;" parent="zkfFHV4jXpPFQw0GAbJ--17" vertex="1">
          <mxGeometry y="26" width="296.19" height="95.76470588235294" as="geometry" />
        </mxCell>
        <mxCell id="zkfFHV4jXpPFQw0GAbJ--23" value="" style="line;html=1;strokeWidth=1;align=left;verticalAlign=middle;spacingTop=-1;spacingLeft=3;spacingRight=3;rotatable=0;labelPosition=right;points=[];portConstraint=eastwest;" parent="zkfFHV4jXpPFQw0GAbJ--17" vertex="1">
          <mxGeometry y="121.76470588235294" width="296.19" height="10.352941176470589" as="geometry" />
        </mxCell>
        <mxCell id="8-i2YcRf8_cl_0pRVRHD-7" value="+Comment(cid:String, posterId: String, text: String)&#xa;+Comment(doc: DocumentReference)&#xa;#Comment(in:Parcel)&#xa;+describeContents(): Integer&#xa;+writeToParcel(dest: Parcel, flags: Integer)&#xa;" style="text;align=left;verticalAlign=top;spacingLeft=4;spacingRight=4;overflow=hidden;rotatable=0;points=[[0,0.5],[1,0.5]];portConstraint=eastwest;" vertex="1" parent="zkfFHV4jXpPFQw0GAbJ--17">
          <mxGeometry y="132.11764705882354" width="296.19" height="77.88" as="geometry" />
        </mxCell>
        <mxCell id="2BQzIX3aD6I6nqEZA5Km-3" value="" style="rhombus;whiteSpace=wrap;html=1;" parent="2BQzIX3aD6I6nqEZA5Km-4" vertex="1">
          <mxGeometry y="38.82352941176471" width="73.80952380952382" height="64.70588235294117" as="geometry" />
        </mxCell>
        <mxCell id="2BQzIX3aD6I6nqEZA5Km-7" value="" style="endArrow=none;shadow=0;strokeWidth=1;rounded=0;endFill=0;edgeStyle=elbowEdgeStyle;elbow=vertical;entryX=0.5;entryY=1;entryDx=0;entryDy=0;exitX=0.5;exitY=0;exitDx=0;exitDy=0;" parent="WIyWlLk6GJQsqaUBKTNV-1" source="zkfFHV4jXpPFQw0GAbJ--6" target="2BQzIX3aD6I6nqEZA5Km-10" edge="1">
          <mxGeometry x="0.5" y="41" relative="1" as="geometry">
            <mxPoint x="210" y="265" as="sourcePoint" />
            <mxPoint x="330" y="255" as="targetPoint" />
            <mxPoint x="-40" y="32" as="offset" />
          </mxGeometry>
        </mxCell>
        <mxCell id="2BQzIX3aD6I6nqEZA5Km-8" value="0..*" style="resizable=0;align=left;verticalAlign=bottom;labelBackgroundColor=none;fontSize=12;" parent="2BQzIX3aD6I6nqEZA5Km-7" connectable="0" vertex="1">
          <mxGeometry x="-1" relative="1" as="geometry">
            <mxPoint x="5" y="-5" as="offset" />
          </mxGeometry>
        </mxCell>
        <mxCell id="2BQzIX3aD6I6nqEZA5Km-9" value="1" style="resizable=0;align=right;verticalAlign=bottom;labelBackgroundColor=none;fontSize=12;" parent="2BQzIX3aD6I6nqEZA5Km-7" connectable="0" vertex="1">
          <mxGeometry x="1" relative="1" as="geometry">
            <mxPoint x="15" y="20" as="offset" />
          </mxGeometry>
        </mxCell>
        <mxCell id="2BQzIX3aD6I6nqEZA5Km-11" value="" style="group" parent="WIyWlLk6GJQsqaUBKTNV-1" vertex="1" connectable="0">
          <mxGeometry x="40" y="70" width="590" height="220" as="geometry" />
        </mxCell>
        <mxCell id="zkfFHV4jXpPFQw0GAbJ--0" value="Player" style="swimlane;fontStyle=2;align=center;verticalAlign=top;childLayout=stackLayout;horizontal=1;startSize=26;horizontalStack=0;resizeParent=1;resizeLast=0;collapsible=1;marginBottom=0;rounded=0;shadow=0;strokeWidth=1;" parent="2BQzIX3aD6I6nqEZA5Km-11" vertex="1">
          <mxGeometry width="590" height="200" as="geometry">
            <mxRectangle x="220" y="120" width="160" height="26" as="alternateBounds" />
          </mxGeometry>
        </mxCell>
        <mxCell id="zkfFHV4jXpPFQw0GAbJ--1" value="-codes: ArrayList&lt;QRCode&gt;&#xa;-uid: String&#xa;-username: String&#xa;-email: String&#xa;-phoneNumber: String&#xa;-isHidden: boolean" style="text;align=left;verticalAlign=top;spacingLeft=4;spacingRight=4;overflow=hidden;rotatable=0;points=[[0,0.5],[1,0.5]];portConstraint=eastwest;" parent="zkfFHV4jXpPFQw0GAbJ--0" vertex="1">
          <mxGeometry y="26" width="590" height="94" as="geometry" />
        </mxCell>
        <mxCell id="zkfFHV4jXpPFQw0GAbJ--4" value="" style="line;html=1;strokeWidth=1;align=left;verticalAlign=middle;spacingTop=-1;spacingLeft=3;spacingRight=3;rotatable=0;labelPosition=right;points=[];portConstraint=eastwest;" parent="zkfFHV4jXpPFQw0GAbJ--0" vertex="1">
          <mxGeometry y="120" width="590" height="8" as="geometry" />
        </mxCell>
        <mxCell id="zkfFHV4jXpPFQw0GAbJ--5" value="+Player(codes: ArrayList&lt;QRCode&gt;, String username, String email, String phoneNumber, boolean isHidden)&#xa;+Player(uid:String)&#xa;+getHighestQRCode(): QRCode&#xa;+getLowestQRCode(): QRCode&#xa;" style="text;align=left;verticalAlign=top;spacingLeft=4;spacingRight=4;overflow=hidden;rotatable=0;points=[[0,0.5],[1,0.5]];portConstraint=eastwest;" parent="zkfFHV4jXpPFQw0GAbJ--0" vertex="1">
          <mxGeometry y="128" width="590" height="72" as="geometry" />
        </mxCell>
        <mxCell id="2BQzIX3aD6I6nqEZA5Km-10" value="" style="rhombus;whiteSpace=wrap;html=1;" parent="2BQzIX3aD6I6nqEZA5Km-11" vertex="1">
          <mxGeometry x="270" y="200" width="50" height="50" as="geometry" />
        </mxCell>
        <mxCell id="2BQzIX3aD6I6nqEZA5Km-12" value="" style="endArrow=none;shadow=0;strokeWidth=1;rounded=0;endFill=0;edgeStyle=elbowEdgeStyle;elbow=vertical;entryX=1;entryY=0.5;entryDx=0;entryDy=0;exitX=0.5;exitY=1;exitDx=0;exitDy=0;" parent="WIyWlLk6GJQsqaUBKTNV-1" source="zkfFHV4jXpPFQw0GAbJ--17" target="2BQzIX3aD6I6nqEZA5Km-15" edge="1">
          <mxGeometry x="0.5" y="41" relative="1" as="geometry">
            <mxPoint x="760" y="270" as="sourcePoint" />
            <mxPoint x="500" y="485" as="targetPoint" />
            <mxPoint x="-40" y="32" as="offset" />
          </mxGeometry>
        </mxCell>
        <mxCell id="2BQzIX3aD6I6nqEZA5Km-13" value="0..*" style="resizable=0;align=left;verticalAlign=bottom;labelBackgroundColor=none;fontSize=12;" parent="2BQzIX3aD6I6nqEZA5Km-12" connectable="0" vertex="1">
          <mxGeometry x="-1" relative="1" as="geometry">
            <mxPoint y="20" as="offset" />
          </mxGeometry>
        </mxCell>
        <mxCell id="2BQzIX3aD6I6nqEZA5Km-14" value="1" style="resizable=0;align=right;verticalAlign=bottom;labelBackgroundColor=none;fontSize=12;" parent="2BQzIX3aD6I6nqEZA5Km-12" connectable="0" vertex="1">
          <mxGeometry x="1" relative="1" as="geometry">
            <mxPoint x="15" y="-5" as="offset" />
          </mxGeometry>
        </mxCell>
        <mxCell id="2BQzIX3aD6I6nqEZA5Km-15" value="" style="rhombus;whiteSpace=wrap;html=1;fillColor=#000000;" parent="WIyWlLk6GJQsqaUBKTNV-1" vertex="1">
          <mxGeometry x="435" y="470" width="50" height="50" as="geometry" />
        </mxCell>
        <mxCell id="wJ786lOBI6JB7BBE6zlU-0" value="" style="group" parent="WIyWlLk6GJQsqaUBKTNV-1" vertex="1" connectable="0">
          <mxGeometry x="1190" y="230" width="400" height="90" as="geometry" />
        </mxCell>
        <mxCell id="wJ786lOBI6JB7BBE6zlU-1" value="QRArrayAdapter" style="swimlane;fontStyle=0;align=center;verticalAlign=top;childLayout=stackLayout;horizontal=1;startSize=26;horizontalStack=0;resizeParent=1;resizeLast=0;collapsible=1;marginBottom=0;rounded=0;shadow=0;strokeWidth=1;container=0;" parent="wJ786lOBI6JB7BBE6zlU-0" vertex="1">
          <mxGeometry width="400" height="90" as="geometry">
            <mxRectangle x="220" y="120" width="160" height="26" as="alternateBounds" />
          </mxGeometry>
        </mxCell>
        <mxCell id="wJ786lOBI6JB7BBE6zlU-2" value="" style="line;html=1;strokeWidth=1;align=left;verticalAlign=middle;spacingTop=-1;spacingLeft=3;spacingRight=3;rotatable=0;labelPosition=right;points=[];portConstraint=eastwest;container=0;" parent="wJ786lOBI6JB7BBE6zlU-0" vertex="1">
          <mxGeometry y="26" width="400" height="24" as="geometry" />
        </mxCell>
        <mxCell id="wJ786lOBI6JB7BBE6zlU-3" value="+getView(position: integer, convertView: View, parent: viewGroup): View" style="text;align=left;verticalAlign=top;spacingLeft=4;spacingRight=4;overflow=hidden;rotatable=0;points=[[0,0.5],[1,0.5]];portConstraint=eastwest;container=0;" parent="wJ786lOBI6JB7BBE6zlU-0" vertex="1">
          <mxGeometry y="50" width="400" height="30" as="geometry" />
        </mxCell>
        <mxCell id="wJ786lOBI6JB7BBE6zlU-4" value="" style="group" parent="WIyWlLk6GJQsqaUBKTNV-1" vertex="1" connectable="0">
          <mxGeometry x="1170" y="96" width="200" height="60" as="geometry" />
        </mxCell>
        <mxCell id="wJ786lOBI6JB7BBE6zlU-5" value="ArrayAdapter&lt;QRCode&gt;" style="swimlane;fontStyle=0;align=center;verticalAlign=top;childLayout=stackLayout;horizontal=1;startSize=26;horizontalStack=0;resizeParent=1;resizeLast=0;collapsible=1;marginBottom=0;rounded=0;shadow=0;strokeWidth=1;container=0;" parent="wJ786lOBI6JB7BBE6zlU-4" vertex="1">
          <mxGeometry width="200" height="60" as="geometry">
            <mxRectangle x="220" y="120" width="160" height="26" as="alternateBounds" />
          </mxGeometry>
        </mxCell>
        <mxCell id="wJ786lOBI6JB7BBE6zlU-6" value="" style="line;html=1;strokeWidth=1;align=left;verticalAlign=middle;spacingTop=-1;spacingLeft=3;spacingRight=3;rotatable=0;labelPosition=right;points=[];portConstraint=eastwest;container=0;" parent="wJ786lOBI6JB7BBE6zlU-5" vertex="1">
          <mxGeometry y="26" width="200" height="16" as="geometry" />
        </mxCell>
        <mxCell id="wJ786lOBI6JB7BBE6zlU-7" style="edgeStyle=orthogonalEdgeStyle;rounded=0;orthogonalLoop=1;jettySize=auto;html=1;exitX=0.5;exitY=0;exitDx=0;exitDy=0;entryX=0.5;entryY=1;entryDx=0;entryDy=0;endArrow=block;endFill=0;endSize=12;" parent="WIyWlLk6GJQsqaUBKTNV-1" source="wJ786lOBI6JB7BBE6zlU-1" target="wJ786lOBI6JB7BBE6zlU-5" edge="1">
          <mxGeometry relative="1" as="geometry" />
        </mxCell>
        <mxCell id="8-i2YcRf8_cl_0pRVRHD-8" value="" style="group" vertex="1" connectable="0" parent="WIyWlLk6GJQsqaUBKTNV-1">
          <mxGeometry y="630" width="610" height="250" as="geometry" />
        </mxCell>
        <mxCell id="8-i2YcRf8_cl_0pRVRHD-9" value="HomeFragment" style="swimlane;fontStyle=0;align=center;verticalAlign=top;childLayout=stackLayout;horizontal=1;startSize=26;horizontalStack=0;resizeParent=1;resizeLast=0;collapsible=1;marginBottom=0;rounded=0;shadow=0;strokeWidth=1;" vertex="1" parent="8-i2YcRf8_cl_0pRVRHD-8">
          <mxGeometry x="73.81" width="536.19" height="240" as="geometry">
            <mxRectangle x="550" y="140" width="160" height="26" as="alternateBounds" />
          </mxGeometry>
        </mxCell>
        <mxCell id="8-i2YcRf8_cl_0pRVRHD-10" value="+request_Code: Integer (static)&#xa;+RESULT_OK: Integer (static)&#xa;+ARG_PARAM1: String (static,final)&#xa;-player:Player&#xa;-qrData: ArrayList&lt;QRCode&gt;&#xa;-qrList: ListView&#xa;-qrAdapter: QRArrayAdapter" style="text;align=left;verticalAlign=top;spacingLeft=4;spacingRight=4;overflow=hidden;rotatable=0;points=[[0,0.5],[1,0.5]];portConstraint=eastwest;" vertex="1" parent="8-i2YcRf8_cl_0pRVRHD-9">
          <mxGeometry y="26" width="536.19" height="114" as="geometry" />
        </mxCell>
        <mxCell id="8-i2YcRf8_cl_0pRVRHD-11" value="" style="line;html=1;strokeWidth=1;align=left;verticalAlign=middle;spacingTop=-1;spacingLeft=3;spacingRight=3;rotatable=0;labelPosition=right;points=[];portConstraint=eastwest;" vertex="1" parent="8-i2YcRf8_cl_0pRVRHD-9">
          <mxGeometry y="140" width="536.19" height="10.352941176470589" as="geometry" />
        </mxCell>
        <mxCell id="8-i2YcRf8_cl_0pRVRHD-12" value="+newInstance(player:Player): HomeFragment&#xa;+onCreate(savedInstanceState:Bundle)&#xa;+onCreateView(inflater: LayoutInflater, container: ViewGroup, savedInstanceState: Bundle): View&#xa;+onViewCreated(view:View, savedInstanceState: Bundle)&#xa;+onActivityResult(requestCode: Integer, resultCode: Integer, data: Intent)" style="text;align=left;verticalAlign=top;spacingLeft=4;spacingRight=4;overflow=hidden;rotatable=0;points=[[0,0.5],[1,0.5]];portConstraint=eastwest;" vertex="1" parent="8-i2YcRf8_cl_0pRVRHD-9">
          <mxGeometry y="150.35294117647058" width="536.19" height="77.88" as="geometry" />
        </mxCell>
        <mxCell id="8-i2YcRf8_cl_0pRVRHD-20" value="" style="group" vertex="1" connectable="0" parent="WIyWlLk6GJQsqaUBKTNV-1">
          <mxGeometry x="650" y="530" width="570" height="480" as="geometry" />
        </mxCell>
        <mxCell id="8-i2YcRf8_cl_0pRVRHD-25" value="" style="group" vertex="1" connectable="0" parent="8-i2YcRf8_cl_0pRVRHD-20">
          <mxGeometry x="50" y="168.88888888888889" width="520" height="311.1111111111109" as="geometry" />
        </mxCell>
        <mxCell id="8-i2YcRf8_cl_0pRVRHD-26" value="MainActivity" style="swimlane;fontStyle=2;align=center;verticalAlign=top;childLayout=stackLayout;horizontal=1;startSize=26;horizontalStack=0;resizeParent=1;resizeLast=0;collapsible=1;marginBottom=0;rounded=0;shadow=0;strokeWidth=1;" vertex="1" parent="8-i2YcRf8_cl_0pRVRHD-25">
          <mxGeometry x="-10" y="71.11111111111107" width="520" height="212.70250896057337" as="geometry">
            <mxRectangle x="220" y="120" width="160" height="26" as="alternateBounds" />
          </mxGeometry>
        </mxCell>
        <mxCell id="8-i2YcRf8_cl_0pRVRHD-27" value="-player: Player&#xa;-db: FirebaseFirestore&#xa;-binding: ActivityMainBinding&#xa;-isTesting: Boolean&#xa;+testAndroidID: String&#xa;" style="text;align=left;verticalAlign=top;spacingLeft=4;spacingRight=4;overflow=hidden;rotatable=0;points=[[0,0.5],[1,0.5]];portConstraint=eastwest;" vertex="1" parent="8-i2YcRf8_cl_0pRVRHD-26">
          <mxGeometry y="26" width="520" height="74.6666666666666" as="geometry" />
        </mxCell>
        <mxCell id="8-i2YcRf8_cl_0pRVRHD-28" value="" style="line;html=1;strokeWidth=1;align=left;verticalAlign=middle;spacingTop=-1;spacingLeft=3;spacingRight=3;rotatable=0;labelPosition=right;points=[];portConstraint=eastwest;" vertex="1" parent="8-i2YcRf8_cl_0pRVRHD-26">
          <mxGeometry y="100.6666666666666" width="520" height="7.111111111111107" as="geometry" />
        </mxCell>
        <mxCell id="8-i2YcRf8_cl_0pRVRHD-29" value="#onCreate(savedInstanceState: Bundle)&#xa;-activityInit()&#xa;-login()&#xa;-replaceFragment(fragment: Fragment)&#xa;+getPlayer(): Player&#xa;#onAcitivityResult(requestCode: Integer, resultCode: Integer, data: intent)" style="text;align=left;verticalAlign=top;spacingLeft=4;spacingRight=4;overflow=hidden;rotatable=0;points=[[0,0.5],[1,0.5]];portConstraint=eastwest;fontStyle=0" vertex="1" parent="8-i2YcRf8_cl_0pRVRHD-26">
          <mxGeometry y="107.77777777777771" width="520" height="90.66666666666663" as="geometry" />
        </mxCell>
        <mxCell id="8-i2YcRf8_cl_0pRVRHD-21" value="AllQRCodesFragment" style="swimlane;fontStyle=2;align=center;verticalAlign=top;childLayout=stackLayout;horizontal=1;startSize=26;horizontalStack=0;resizeParent=1;resizeLast=0;collapsible=1;marginBottom=0;rounded=0;shadow=0;strokeWidth=1;" vertex="1" parent="WIyWlLk6GJQsqaUBKTNV-1">
          <mxGeometry x="1120" y="440" width="519.9999999999999" height="170" as="geometry">
            <mxRectangle x="220" y="120" width="160" height="26" as="alternateBounds" />
          </mxGeometry>
        </mxCell>
        <mxCell id="8-i2YcRf8_cl_0pRVRHD-22" value="-otherQRCodeList: ArrayList&lt;QRCode&gt;&#xa;-qrListView: ListView&#xa;-qrAdapter: QRArrayAdapter&#xa;&#xa;" style="text;align=left;verticalAlign=top;spacingLeft=4;spacingRight=4;overflow=hidden;rotatable=0;points=[[0,0.5],[1,0.5]];portConstraint=eastwest;" vertex="1" parent="8-i2YcRf8_cl_0pRVRHD-21">
          <mxGeometry y="26" width="519.9999999999999" height="54" as="geometry" />
        </mxCell>
        <mxCell id="8-i2YcRf8_cl_0pRVRHD-23" value="" style="line;html=1;strokeWidth=1;align=left;verticalAlign=middle;spacingTop=-1;spacingLeft=3;spacingRight=3;rotatable=0;labelPosition=right;points=[];portConstraint=eastwest;" vertex="1" parent="8-i2YcRf8_cl_0pRVRHD-21">
          <mxGeometry y="80" width="519.9999999999999" height="8" as="geometry" />
        </mxCell>
        <mxCell id="8-i2YcRf8_cl_0pRVRHD-24" value="+newInstance(): AllQRCodesFragment (static)&#xa;+onCreate(savedInstanceState:Bundle)&#xa;+onViewCreated(view:View, savedInstanceState:Bundle)&#xa;-getAllQRCode(otherQRCodeList: ArrayList&lt;QRCode&gt;,qrArrayAdapter: QRArrayAdapter)&#xa;onCreateView(inflater:LayoutInflater, container: ViewGroup, savedInstanceState: Bundle): VIew&#xa;" style="text;align=left;verticalAlign=top;spacingLeft=4;spacingRight=4;overflow=hidden;rotatable=0;points=[[0,0.5],[1,0.5]];portConstraint=eastwest;fontStyle=0" vertex="1" parent="8-i2YcRf8_cl_0pRVRHD-21">
          <mxGeometry y="88" width="519.9999999999999" height="70" as="geometry" />
        </mxCell>
      </root>
    </mxGraphModel>
  </diagram>
</mxfile>
